<?xml version="1.0" encoding="UTF-8" standalone="no"?><svg xmlns="http://www.w3.org/2000/svg" xmlns:xlink="http://www.w3.org/1999/xlink" contentScriptType="application/ecmascript" contentStyleType="text/css" height="307px" preserveAspectRatio="none" style="width:496px;height:307px;" version="1.1" viewBox="0 0 496 307" width="496px" zoomAndPan="magnify"><defs/><g><ellipse cx="186.8751" cy="43.242" fill="#F8F8F8" rx="23.5061" ry="13.242" style="stroke: #383838; stroke-width: 0.5;"/><text fill="#000000" font-family="Tahoma, sans-serif" font-size="12" font-weight="bold" lengthAdjust="spacingAndGlyphs" textLength="29" x="172.3751" y="46.9842">arkit</text><ellipse cx="238.0136" cy="42.9157" fill="#F8F8F8" rx="14.1446" ry="11.9157" style="stroke: #383838; stroke-width: 0.5;"/><text fill="#000000" font-family="Tahoma, sans-serif" font-size="12" lengthAdjust="spacingAndGlyphs" textLength="13" x="231.5136" y="46.6579">cli</text><!--MD5=[9b175bf41d9031fc73b2d23114484617]
entity _config--><rect fill="#F8F8F8" height="34.4844" rx="3" ry="3" style="stroke: #000000; stroke-width: 0.5;" width="56" x="79.8694" y="87"/><text fill="#000000" font-family="Tahoma, sans-serif" font-size="12" lengthAdjust="spacingAndGlyphs" textLength="36" x="89.8694" y="109.0059">config</text><!--MD5=[596069b5d1c03d992244e8df7b78e7fa]
entity _converter--><rect fill="#F8F8F8" height="34.4844" rx="3" ry="3" style="stroke: #000000; stroke-width: 0.5;" width="74" x="291.869" y="87"/><text fill="#000000" font-family="Tahoma, sans-serif" font-size="12" lengthAdjust="spacingAndGlyphs" textLength="54" x="301.869" y="109.0059">converter</text><!--MD5=[87e5f189758f188e992f835c2ae5b802]
entity _filesystem--><rect fill="#F8F8F8" height="34.4844" rx="3" ry="3" style="stroke: #000000; stroke-width: 0.5;" width="79" x="406.369" y="87"/><text fill="#000000" font-family="Tahoma, sans-serif" font-size="12" lengthAdjust="spacingAndGlyphs" textLength="59" x="416.369" y="109.0059">filesystem</text><!--MD5=[bfa94df0d4ceea2318174c906ec62bd3]
entity _generator--><rect fill="#F8F8F8" height="34.4844" rx="3" ry="3" style="stroke: #000000; stroke-width: 0.5;" width="75" x="149.369" y="87"/><text fill="#000000" font-family="Tahoma, sans-serif" font-size="12" lengthAdjust="spacingAndGlyphs" textLength="55" x="159.369" y="109.0059">generator</text><ellipse cx="408.1177" cy="43.242" fill="#F8F8F8" rx="27.7487" ry="13.242" style="stroke: #383838; stroke-width: 0.5;"/><text fill="#000000" font-family="Tahoma, sans-serif" font-size="12" font-weight="bold" lengthAdjust="spacingAndGlyphs" textLength="35" x="390.6177" y="46.9842">index</text><ellipse cx="328.8248" cy="218.242" fill="#F8F8F8" rx="28.4558" ry="13.242" style="stroke: #383838; stroke-width: 0.5;"/><text fill="#000000" font-family="Tahoma, sans-serif" font-size="12" lengthAdjust="spacingAndGlyphs" textLength="36" x="310.8248" y="221.9842">logger</text><!--MD5=[a33901bb4370b10c1cb4e380a1b2276e]
entity _parser--><rect fill="#F8F8F8" height="34.4844" rx="3" ry="3" style="stroke: #000000; stroke-width: 0.5;" width="56" x="310.869" y="26"/><text fill="#000000" font-family="Tahoma, sans-serif" font-size="12" lengthAdjust="spacingAndGlyphs" textLength="36" x="320.869" y="48.0059">parser</text><!--MD5=[27f363bce3ef1a6c4c9472d222d45cf6]
entity _puml--><rect fill="#F8F8F8" height="34.4844" rx="3" ry="3" style="stroke: #000000; stroke-width: 0.5;" width="48" x="18.8694" y="87"/><text fill="#000000" font-family="Tahoma, sans-serif" font-size="12" lengthAdjust="spacingAndGlyphs" textLength="28" x="28.8694" y="109.0059">puml</text><!--MD5=[48d5f9b8cc26619de48164ae0fd9e780]
entity _schema--><rect fill="#F8F8F8" height="34.4844" rx="3" ry="3" style="stroke: #000000; stroke-width: 0.5;" width="66" x="188.869" y="262"/><text fill="#000000" font-family="Tahoma, sans-serif" font-size="12" lengthAdjust="spacingAndGlyphs" textLength="46" x="198.869" y="284.0059">schema</text><!--MD5=[0190f419ef54fc162964943b68b4f170]
entity _types--><rect fill="#F8F8F8" height="34.4844" rx="3" ry="3" style="stroke: #000000; stroke-width: 0.5;" width="51" x="196.369" y="201"/><text fill="#000000" font-family="Tahoma, sans-serif" font-size="12" lengthAdjust="spacingAndGlyphs" textLength="31" x="206.369" y="223.0059">types</text><ellipse cx="244.8396" cy="161.242" fill="#F8F8F8" rx="19.9706" ry="13.242" style="stroke: #383838; stroke-width: 0.5;"/><text fill="#000000" font-family="Tahoma, sans-serif" font-size="12" lengthAdjust="spacingAndGlyphs" textLength="24" x="232.8396" y="164.9842">utils</text><!--MD5=[4973c389aa2c377c15e818329c82b098]
link <b>arkit</b> to cli--><path d="M210.377,43 C213.013,43 215.648,43 218.284,43 " fill="none" id="&lt;b&gt;arkit&lt;/b&gt;-&gt;cli" style="stroke: #000000; stroke-width: 1.0;"/><polygon fill="#000000" points="223.694,43,214.694,39,218.694,43,214.694,47,223.694,43" style="stroke: #000000; stroke-width: 1.0;"/><!--MD5=[3ef4cd0402f24cf9e1de39667c3ecb3f]
link <b>arkit</b> to _config--><path d="M173.468,54.009 C162.537,62.172 146.779,73.941 133.448,83.897 " fill="none" id="&lt;b&gt;arkit&lt;/b&gt;-&gt;_config" style="stroke: #000000; stroke-width: 1.0;"/><polygon fill="#000000" points="129.396,86.923,139.0005,84.7428,133.4022,83.9312,134.2137,78.3329,129.396,86.923" style="stroke: #000000; stroke-width: 1.0;"/><!--MD5=[7e72266f040ccf1607d790f530e45289]
link <b>arkit</b> to _converter--><path d="M202.567,52.841 C207.123,55.278 212.144,57.843 216.869,60 C239.681,70.414 265.808,80.543 287.086,88.352 " fill="none" id="&lt;b&gt;arkit&lt;/b&gt;-&gt;_converter" style="stroke: #000000; stroke-width: 1.0;"/><polygon fill="#000000" points="291.827,90.083,284.7464,83.2372,287.1307,88.3671,282.0008,90.7514,291.827,90.083" style="stroke: #000000; stroke-width: 1.0;"/><!--MD5=[8097374f7142548b7a890ead09ee56fe]
link <b>arkit</b> to _generator--><path d="M186.869,56.225 C186.869,63.604 186.869,73.21 186.869,81.795 " fill="none" id="&lt;b&gt;arkit&lt;/b&gt;-&gt;_generator" style="stroke: #000000; stroke-width: 1.0;"/><polygon fill="#000000" points="186.869,86.98,190.869,77.98,186.869,81.98,182.869,77.98,186.869,86.98" style="stroke: #000000; stroke-width: 1.0;"/><!--MD5=[38738d36366e95da585b7000f564045b]
link <b>arkit</b> to _parser--><path d="M197.052,31.081 C203.739,24.211 213.123,16.218 223.369,12.5 C250.603,2.619 282.505,12.603 305.872,23.714 " fill="none" id="&lt;b&gt;arkit&lt;/b&gt;-&gt;_parser" style="stroke: #000000; stroke-width: 1.0;"/><polygon fill="#000000" points="310.428,25.946,304.1051,18.3948,305.9377,23.7466,300.586,25.5792,310.428,25.946" style="stroke: #000000; stroke-width: 1.0;"/><!--MD5=[5fd153b349494263d8e7f4f2216a3c65]
link <b>arkit</b> to _puml--><path d="M167.194,50.552 C144.22,58.401 105.24,72.337 72.8694,87 C72.5065,87.164 72.1418,87.331 71.7758,87.5 " fill="none" id="&lt;b&gt;arkit&lt;/b&gt;-&gt;_puml" style="stroke: #000000; stroke-width: 1.0;"/><polygon fill="#000000" points="66.9679,89.803,76.8128,89.5235,71.4775,87.6435,73.3576,82.3082,66.9679,89.803" style="stroke: #000000; stroke-width: 1.0;"/><!--MD5=[4191f6fd6e40dd5b341ae5ab34913be2]
link <b>arkit</b> to _types--><path d="M163.445,45.066 C108.267,48.545 -22.7151,62.978 11.8694,121 C49.7926,184.623 142.367,206.415 190.949,213.6161 " fill="none" id="&lt;b&gt;arkit&lt;/b&gt;-&gt;_types" style="stroke: #000000; stroke-width: 1.0;"/><polygon fill="#000000" points="196.08,214.3465,187.7332,209.1187,191.1299,213.6422,186.6063,217.0389,196.08,214.3465" style="stroke: #000000; stroke-width: 1.0;"/><!--MD5=[5d007d3b1824d14964ea8f19f3e5cec4]
link <b>arkit</b> to utils--><path d="M200.585,53.71 C210.576,61.54 223.588,73.452 230.869,87 C240.228,104.412 243.4,127.125 244.437,142.56 " fill="none" id="&lt;b&gt;arkit&lt;/b&gt;-&gt;utils" style="stroke: #000000; stroke-width: 1.0;"/><polygon fill="#000000" points="244.731,147.894,248.2287,138.6871,244.4553,142.9016,240.2408,139.1282,244.731,147.894" style="stroke: #000000; stroke-width: 1.0;"/><!--MD5=[18c9d18ff7c5b344df0fa5f9cb40db42]
link _config to _types--><path d="M124.203,121.047 C144.689,141.174 179.799,175.668 201.872,197.3532 " fill="none" id="_config-&gt;_types" style="stroke: #000000; stroke-width: 0.5;"/><polygon fill="#000000" points="205.566,200.9829,201.9494,191.8221,201.9994,197.4787,196.3428,197.5287,205.566,200.9829" style="stroke: #000000; stroke-width: 0.5;"/><!--MD5=[351f68a5f896d67f539cead901abd720]
link _config to utils--><path d="M136.073,118.079 C138.365,119.085 140.651,120.07 142.869,121 C170.225,132.469 202.242,144.486 223.005,152.098 " fill="none" id="_config-&gt;utils" style="stroke: #000000; stroke-width: 0.5;"/><polygon fill="#000000" points="227.773,153.841,220.6942,146.9933,223.0771,152.1238,217.9467,154.5067,227.773,153.841" style="stroke: #000000; stroke-width: 0.5;"/><!--MD5=[c9657907db6ff79fce239197463be672]
link _converter to logger--><path d="M328.869,121.047 C328.869,141.901 328.869,178.181 328.869,199.6539 " fill="none" id="_converter-&gt;logger" style="stroke: #000000; stroke-width: 0.5;"/><polygon fill="#000000" points="328.869,204.7757,332.869,195.7757,328.869,199.7757,324.869,195.7757,328.869,204.7757" style="stroke: #000000; stroke-width: 0.5;"/><!--MD5=[fc162100910514425fff6944e35fc2d8]
link _converter to _types--><path d="M316.392,121.212 C305.065,135.586 287.619,156.891 270.869,174 C262.977,182.062 253.801,190.366 245.538,197.5006 " fill="none" id="_converter-&gt;_types" style="stroke: #000000; stroke-width: 0.5;"/><polygon fill="#000000" points="241.564,200.9029,251.0015,198.0863,245.3615,197.6504,245.7975,192.0103,241.564,200.9029" style="stroke: #000000; stroke-width: 0.5;"/><!--MD5=[61d1a339dcb5d9c1f41aeaef7d739cc0]
link _converter to utils--><path d="M304.121,121.204 C290.846,129.896 274.788,140.411 262.739,148.3 " fill="none" id="_converter-&gt;utils" style="stroke: #000000; stroke-width: 0.5;"/><polygon fill="#000000" points="258.494,151.079,268.2144,149.4934,262.6765,148.3392,263.8307,142.8014,258.494,151.079" style="stroke: #000000; stroke-width: 0.5;"/><!--MD5=[0ed876bbe3cff773d614e1e8d04ba7d9]
link _filesystem to logger--><path d="M444.199,121.067 C441.837,136.352 436.2,159.157 422.869,174 C405.996,192.788 379.27,203.914 358.622,210.124 " fill="none" id="_filesystem-&gt;logger" style="stroke: #000000; stroke-width: 0.5;"/><polygon fill="#000000" points="353.781,211.5242,363.5382,212.8647,358.5839,210.1343,361.3143,205.18,353.781,211.5242" style="stroke: #000000; stroke-width: 0.5;"/><!--MD5=[24e3fd6873b45d5741aef9beafd9834e]
link _filesystem to _schema--><path d="M447.905,121.069 C448.998,135.733 448.651,157.561 439.869,174 C419.463,212.2037 402.183,214.8001 363.869,235 C330.807,252.4317 289.603,263.9173 260.109,270.5971 " fill="none" id="_filesystem-&gt;_schema" style="stroke: #000000; stroke-width: 0.5;"/><polygon fill="#000000" points="255.112,271.7084,264.7658,273.6587,259.9927,270.6227,263.0287,265.8496,255.112,271.7084" style="stroke: #000000; stroke-width: 0.5;"/><!--MD5=[29fc7cb263c8a986e59895fafbf2618c]
link _filesystem to _types--><path d="M438.33,121.252 C430.122,137.126 415.498,160.772 395.869,174 C389.879,178.037 300.991,198.8505 252.647,209.972 " fill="none" id="_filesystem-&gt;_types" style="stroke: #000000; stroke-width: 0.5;"/><polygon fill="#000000" points="247.53,211.1479,257.1968,213.033,252.4033,210.0293,255.407,205.2358,247.53,211.1479" style="stroke: #000000; stroke-width: 0.5;"/><!--MD5=[f8d8a2b83cdbee1bf0f4ba02f327bf22]
link _filesystem to utils--><path d="M406.158,115.866 C364.891,127.158 301.718,144.444 267.987,153.674 " fill="none" id="_filesystem-&gt;utils" style="stroke: #000000; stroke-width: 0.5;"/><polygon fill="#000000" points="262.834,155.084,272.5707,156.5662,267.6566,153.7641,270.4588,148.85,262.834,155.084" style="stroke: #000000; stroke-width: 0.5;"/><!--MD5=[c454013af6cb5178a340d0b9287c02c6]
link _generator to _types--><path d="M191.884,121.047 C198.044,140.758 208.51,174.248 215.305,195.993 " fill="none" id="_generator-&gt;_types" style="stroke: #000000; stroke-width: 0.5;"/><polygon fill="#000000" points="216.864,200.9829,217.9963,191.1993,215.3721,196.2107,210.3607,193.5865,216.864,200.9829" style="stroke: #000000; stroke-width: 0.5;"/><!--MD5=[b9fac3aebaefdaeea982719c5caf3df9]
link _generator to utils--><path d="M203.958,121.204 C212.343,129.156 222.336,138.632 230.347,146.229 " fill="none" id="_generator-&gt;utils" style="stroke: #000000; stroke-width: 0.5;"/><polygon fill="#000000" points="234.104,149.792,230.3283,140.6956,230.4768,146.3505,224.8219,146.4991,234.104,149.792" style="stroke: #000000; stroke-width: 0.5;"/><!--MD5=[f1e53fc1dea015a30eab6e1e446d89a6]
link _parser to _filesystem--><path d="M366.982,59.502 C380.899,67.175 397.798,76.493 412.38,84.534 " fill="none" id="_parser-&gt;_filesystem" style="stroke: #000000; stroke-width: 0.5;"/><polygon fill="#000000" points="416.825,86.985,410.8751,79.1365,412.4465,84.5707,407.0123,86.1422,416.825,86.985" style="stroke: #000000; stroke-width: 0.5;"/><!--MD5=[5f92b096f1964618f4d35e1885e72196]
link _parser to _types--><path d="M356.078,60.356 C362.672,67.782 369.432,77.112 372.869,87 C377.831,101.273 380.019,107.687 372.869,121 C347.691,167.883 288.593,195.009 252.247,207.825 " fill="none" id="_parser-&gt;_types" style="stroke: #000000; stroke-width: 0.5;"/><polygon fill="#000000" points="247.494,209.4653,257.3066,210.31,252.2204,207.8339,254.6964,202.7477,247.494,209.4653" style="stroke: #000000; stroke-width: 0.5;"/><!--MD5=[a75add013ca82fc82481878bfd4e3641]
link _parser to utils--><path d="M314.496,60.165 C304.524,67.558 293.36,76.916 284.869,87 C270.319,104.282 258.623,127.679 251.721,143.278 " fill="none" id="_parser-&gt;utils" style="stroke: #000000; stroke-width: 0.5;"/><polygon fill="#000000" points="249.567,148.25,256.8149,141.5816,251.5545,143.662,249.4741,138.4016,249.567,148.25" style="stroke: #000000; stroke-width: 0.5;"/><!--MD5=[0b11a76e76c7e435b874dbc72abb77e2]
link _puml to _schema--><path d="M58.0738,121.125 C71.5061,135.257 91.7239,156.255 109.869,174 C140.536,203.9896 177.13,237.5724 199.939,258.2533 " fill="none" id="_puml-&gt;_schema" style="stroke: #000000; stroke-width: 0.5;"/><polygon fill="#000000" points="203.756,261.7098,199.7713,252.703,200.0504,258.353,194.4004,258.632,203.756,261.7098" style="stroke: #000000; stroke-width: 0.5;"/><!--MD5=[1cd7a194fad6e583d98284dd9e7ad5ce]
link _puml to _types--><path d="M67.0541,120.441 C89.1033,134.487 122.603,155.749 151.869,174 C164.911,182.133 179.378,191.039 191.758,198.6252 " fill="none" id="_puml-&gt;_types" style="stroke: #000000; stroke-width: 0.5;"/><polygon fill="#000000" points="196.218,201.3567,190.6321,193.2451,191.9541,198.7453,186.4539,200.0674,196.218,201.3567" style="stroke: #000000; stroke-width: 0.5;"/><!--MD5=[33d3eea4709a8b567280e9efd5c81c20]
link _puml to utils--><path d="M67.1794,118.648 C69.0783,119.503 70.9887,120.3 72.8694,121 C123.667,139.916 186.46,151.32 220.367,156.556 " fill="none" id="_puml-&gt;utils" style="stroke: #000000; stroke-width: 0.5;"/><polygon fill="#000000" points="225.554,157.344,217.2574,152.0368,220.6108,156.5925,216.055,159.9459,225.554,157.344" style="stroke: #000000; stroke-width: 0.5;"/><!--MD5=[c9602602a4a319a2655ab3a7f1f5377e]
link _types to _schema--><path d="M221.869,235.122 C221.869,241.756 221.869,249.5351 221.869,256.6329 " fill="none" id="_types-&gt;_schema" style="stroke: #000000; stroke-width: 0.5;"/><polygon fill="#000000" points="221.869,261.8975,225.869,252.8975,221.869,256.8975,217.869,252.8975,221.869,261.8975" style="stroke: #000000; stroke-width: 0.5;"/><!--MD5=[73cb47c51127de574fdb5397cdc244a0]
link utils to logger--><path d="M258.365,170.837 C272.1,179.83 293.535,193.864 309.167,204.0994 " fill="none" id="utils-&gt;logger" style="stroke: #000000; stroke-width: 0.5;"/><polygon fill="#000000" points="313.411,206.8781,308.0722,198.6018,309.2278,204.1394,303.6902,205.295,313.411,206.8781" style="stroke: #000000; stroke-width: 0.5;"/><!--MD5=[e5765284aad8fb6834ca7645c6428beb]
link utils to _types--><path d="M239.992,173.664 C237.24,180.245 233.721,188.66 230.517,196.3218 " fill="none" id="utils-&gt;_types" style="stroke: #000000; stroke-width: 0.5;"/><polygon fill="#000000" points="228.572,200.9716,235.7338,194.2108,230.5005,196.3585,228.3529,191.1252,228.572,200.9716" style="stroke: #000000; stroke-width: 0.5;"/><script type="text/plantuml"><![CDATA[MD5=[ea00e18a5717a68ef5331aefe61d4725]
@startuml

scale max 1920 width
top to bottom direction

skinparam nodesep 13
skinparam ranksep 27
skinparam monochrome true
skinparam shadowing false
skinparam defaultFontName Tahoma
skinparam defaultFontSize 12
skinparam roundCorner 6
skinparam dpi 150
skinparam arrowColor black
skinparam arrowThickness 0.5
skinparam packageTitleAlignment left

skinparam usecase {
  borderThickness 0.5
}

skinparam rectangle {
  borderThickness 0.5
}

skinparam component {
  borderThickness 1
}


(<b>arkit</b>)
(cli)
rectangle "config" as _config
rectangle "converter" as _converter
rectangle "filesystem" as _filesystem
rectangle "generator" as _generator
(<b>index</b>)
(logger)
rectangle "parser" as _parser
rectangle "puml" as _puml
rectangle "schema" as _schema
rectangle "types" as _types
(utils)


(<b>arkit</b>) -[thickness=1]> (cli)
(<b>arkit</b>) -[thickness=1]> _config
(<b>arkit</b>) -[thickness=1]> _converter
(<b>arkit</b>) -[thickness=1]> _generator
(<b>arkit</b>) -[thickness=1]> _parser
(<b>arkit</b>) -[thickness=1]> _puml
(<b>arkit</b>) -[thickness=1]> _types
(<b>arkit</b>) -[thickness=1]> (utils)
_config --> _types
_config --> (utils)
_converter --> (logger)
_converter --> _types
_converter --> (utils)
_filesystem --> (logger)
_filesystem --> _schema
_filesystem --> _types
_filesystem --> (utils)
_generator --> _types
_generator --> (utils)
_parser --> _filesystem
_parser --> _types
_parser --> (utils)
_puml --> _schema
_puml --> _types
_puml --> (utils)
_types --> _schema
(utils) --> (logger)
(utils) --> _types

@enduml


' View and edit on https://arkit.pro
]]></script></g></svg>